<svg width="180" height="73" viewBox="0 0 180 73" fill="none" xmlns="http://www.w3.org/2000/svg">
<path d="M22.0935 15.0203C21.5017 11.5236 23.2771 7.84862 19.8553 5.01367H29.6612C27.1774 6.62682 27.2876 8.86996 27.2939 11.1004C27.3128 16.8244 27.3317 22.5483 27.2939 28.2691C27.2813 30.4996 27.3191 32.6504 29.5447 34.0345H19.3894C22.1061 32.4627 22.0588 30.2514 22.0242 27.9828C21.9644 24.2824 22.0085 20.582 22.0085 16.9166C19.1722 16.2866 15.7913 17.8425 14.0725 20.4675C11.6328 24.1869 11.7997 30.2514 14.5101 34.0249H4.78603C7.67585 32.2272 7.19421 29.5832 7.20366 27.0983C7.2194 21.6924 7.18162 16.2866 7.2131 10.884C7.22569 8.72678 7.26347 6.60455 4.77344 5.02004H14.7178C12.3096 6.68091 12.4041 8.87314 12.4198 11.0558C12.4387 13.6426 12.423 16.2326 12.423 19.2616C15.0389 16.0989 18.1428 14.8867 22.0903 15.0267L22.0935 15.0203Z" fill="black"/>
<path d="M59.6572 34.1108H51.8063C54.1452 32.1858 53.6132 29.7167 53.6384 27.4036C53.6667 24.7023 53.6793 21.9946 53.5093 19.3029C53.355 16.8434 52.1242 15.5484 50.4086 15.6502C48.5135 15.7647 47.0528 17.502 47.0277 19.7165C46.9867 22.8442 46.9773 25.9686 46.9395 29.0963C46.9175 30.9258 46.949 32.7299 49.0581 34.0535H40.1148C42.6457 32.4244 42.1955 30.1177 42.1955 27.9413C42.1955 25.0809 42.1515 22.2173 42.1578 19.3569C42.1609 17.9792 41.8272 16.8434 39.9668 16.2865C42.3246 14.877 44.3802 13.6489 46.8042 12.2012V16.1752C48.6079 13.8811 50.3456 12.4048 52.9206 12.4239C55.5838 12.443 57.1578 13.9575 58.3036 16.4106C58.6751 15.9206 58.9678 15.5293 59.2638 15.1411C61.0486 12.7993 63.822 11.8098 66.3592 12.6148C68.7045 13.3593 70.1242 15.472 70.206 18.5615C70.3005 22.1092 70.3162 25.66 70.3383 29.2108C70.3477 30.9608 70.1746 32.7553 71.8587 34.0567H63.6048C65.9689 32.3512 65.418 29.9872 65.4337 27.7759C65.4526 25.1796 65.44 22.5832 65.3834 19.9869C65.3645 19.2042 65.2638 18.3833 64.9993 17.6547C64.2721 15.6438 62.2921 14.9948 60.5198 16.1752C59.2323 17.0343 58.4295 18.237 58.4358 19.8724C58.4453 23.4232 58.354 26.9773 58.5082 30.5217C58.5586 31.6926 59.2323 32.8381 59.6572 34.1076V34.1108Z" fill="black"/>
<path d="M43.6504 40.1497C48.5769 37.8748 53.0785 36.0548 58.1499 37.6298C66.1551 40.1147 66.0481 49.0682 62.2265 53.1408C59.9599 55.5558 57.1551 56.8444 53.8749 57.0512C52.9935 57.1053 52.1089 57.0608 50.897 57.0608C51.451 60.4143 49.5434 64.0352 53.3555 66.6729H43.6945C46.1939 65.0088 45.7029 62.5429 45.7092 60.2393C45.7217 54.6744 45.6745 49.1064 45.6871 43.5415C45.6871 42.151 45.5675 40.8783 43.6504 40.1561V40.1497ZM50.9757 55.7308C54.0953 56.0203 56.8812 54.5472 58.1751 51.9031C59.7742 48.6355 59.812 45.2501 58.4111 41.9156C57.2936 39.2493 54.6147 37.9511 51.813 38.597C51.4856 38.6734 51.0135 39.1602 51.0103 39.4625C50.9631 44.8524 50.9757 50.2454 50.9757 55.734V55.7308Z" fill="black"/>
<path d="M114.71 66.702C116.086 65.2321 115.633 63.9021 114.893 62.5148C113.659 60.1953 112.497 57.8377 111.301 55.4863C109.919 56.3454 109.233 57.3731 109.447 58.9608C109.573 59.8963 109.491 60.8667 109.463 61.8212C109.406 63.7016 109.359 65.5693 111.238 66.8039H102.685C105.314 64.9966 104.772 62.5308 104.769 60.2049C104.769 55.0632 104.731 49.9214 104.76 44.7797C104.769 43.2111 104.416 41.9384 102.27 41.2002C104.624 39.9212 106.554 38.7185 108.613 37.8212C109.519 37.4267 109.419 38.4862 109.422 39.0812C109.444 44.0097 109.453 48.9415 109.466 53.87C109.466 54.325 109.466 54.78 109.466 55.7377C111.619 53.2909 113.476 51.2419 115.264 49.1292C116.234 47.9806 115.658 46.9751 114.43 45.9379H120.679C118.686 47.761 116.656 49.6192 114.468 51.6237C117.695 56.5713 118.891 62.5721 123.332 66.702H114.704H114.71Z" fill="black"/>
<path d="M164.272 34.0888H156.289C158.647 32.2434 158.206 29.8443 158.228 27.5662C158.253 24.9699 158.269 22.3704 158.25 19.7709C158.238 17.8427 158.005 17.4514 156.478 16.3537C157.63 14.871 161.351 12.7805 162.89 12.8251C162.941 13.7732 162.994 14.7405 163.06 15.9623C163.614 15.345 163.973 14.9155 164.364 14.5178C166.318 12.5515 168.62 11.8006 171.258 12.7964C173.87 13.7828 174.79 16.0291 174.878 18.6095C174.988 21.9472 174.912 25.288 174.893 28.6289C174.884 30.5793 174.635 32.5933 177.116 34.0442H168.072C170.439 32.6156 170.039 30.5729 170.042 28.6543C170.049 25.5267 170.099 22.3958 169.976 19.2745C169.882 16.8277 168.629 15.5678 166.696 15.6409C164.744 15.7141 163.032 17.5404 163.007 19.6659C162.963 23.2708 162.868 26.8821 163.023 30.4807C163.073 31.6738 163.816 32.8383 164.266 34.0888H164.272Z" fill="black"/>
<path d="M84.3496 31.6327C83.04 32.5458 81.8092 33.7613 80.3296 34.3499C78.0316 35.2662 75.5605 34.4103 74.3706 32.7399C72.9382 30.729 72.7399 27.105 74.2069 25.0655C75.0127 23.9423 76.124 22.9401 77.2982 22.221C78.9005 21.241 80.7042 20.5983 82.4073 19.7838C83.3045 19.3543 84.5038 19.2493 84.359 17.7252C84.2016 16.0834 83.9624 14.5053 82.2625 13.7766C81.6675 13.5221 80.9152 13.4171 80.2824 13.5316C79.1145 13.7416 78.4535 14.3239 78.8973 15.778C79.1019 16.4493 78.8973 17.4516 78.5038 18.0593C77.9026 18.9915 76.848 19.4561 75.7525 18.8643C74.6255 18.2534 74.2446 17.0729 74.7829 16.007C75.274 15.0334 76.0893 14.0121 77.0211 13.5221C79.7158 12.103 82.5899 12.1126 85.3821 13.3185C87.9445 14.4257 89.2635 16.4398 89.2478 19.3065C89.2258 22.6983 89.2195 26.0932 89.2289 29.485C89.2352 31.6327 89.4744 31.8299 91.4167 31.4545C90.976 33.5417 90.1859 34.3467 88.4073 34.5121C86.1471 34.7221 85.4073 34.1749 84.3464 31.639L84.3496 31.6327ZM84.3748 19.5706C82.7347 20.872 81.2425 21.8647 79.9897 23.0992C78.2961 24.7664 77.8428 26.9268 78.3307 29.2463C78.6612 30.8213 79.8952 31.7631 81.3527 31.6995C82.7976 31.639 84.2992 30.5222 84.3433 29.1732C84.444 26.1346 84.3748 23.0896 84.3748 19.5706Z" fill="black"/>
<path d="M112.787 31.1358C112.129 31.8994 111.635 32.5866 111.031 33.1466C109.331 34.7216 107.323 35.078 105.185 34.3175C103.145 33.5921 102.182 31.9503 101.921 29.8472C101.474 26.2454 102.664 23.8273 105.881 22.1473C107.738 21.1769 109.661 20.3178 111.613 19.5669C112.825 19.1024 113.027 18.3483 112.841 17.2219C112.46 14.9152 111.377 13.6743 109.57 13.5502C107.839 13.4325 106.986 14.4188 107.53 16.0351C107.927 17.2124 107.53 18.116 106.589 18.5869C105.884 18.9401 104.596 19.2233 104.206 18.851C103.608 18.2815 103.117 16.9483 103.384 16.2547C103.8 15.1792 104.716 14.0115 105.727 13.512C108.909 11.9402 112.145 12.2584 115.164 14.1165C116.845 15.1538 117.682 16.7479 117.676 18.7715C117.667 22.3191 117.664 25.8668 117.682 29.4144C117.692 31.5144 118.145 31.8803 120.059 31.438C120.009 33.0194 118.797 34.2507 117.106 34.4448C114.673 34.7248 113.562 33.9134 112.784 31.1294L112.787 31.1358ZM112.92 20.0887C112.781 19.9996 112.646 19.9137 112.507 19.8246C111.122 21.0082 109.617 22.0741 108.387 23.4009C106.872 25.0332 106.366 27.0822 106.951 29.2999C107.373 30.8939 108.601 31.8071 110.03 31.6894C111.383 31.5748 112.85 30.2131 112.891 28.7685C112.973 25.8795 112.916 22.9841 112.916 20.0919L112.92 20.0887Z" fill="black"/>
<path d="M102.147 64.4144C101.989 66.0594 101.079 66.9757 99.3513 67.2207C96.9808 67.558 95.9798 66.8389 94.8906 63.9403C94.3429 64.5417 93.8486 65.1271 93.3072 65.6617C91.5443 67.4053 89.4352 67.7203 87.2065 66.8962C84.9809 66.0721 84.0868 64.2362 83.9389 61.9358C83.7343 58.735 85.0312 56.3837 87.8392 54.936C89.5611 54.0483 91.3366 53.256 93.1183 52.4956C95.2306 51.5919 95.3219 51.4997 94.9788 49.3774C94.664 47.4238 93.6283 46.307 92.026 46.1925C89.9861 46.0461 89.4006 46.8416 89.6461 48.8652C89.7374 49.6033 89.325 50.6692 88.7741 51.1497C88.261 51.5951 87.0742 51.786 86.5139 51.4774C85.9567 51.172 85.4279 50.017 85.5664 49.387C85.7867 48.3975 86.3817 47.287 87.1592 46.6634C89.8602 44.4934 95.473 44.8657 98.0386 47.2011C99.3733 48.4165 99.9242 49.9374 99.9179 51.7319C99.9053 55.2255 99.9273 58.7223 99.9525 62.2158C99.9683 64.3317 100.176 64.529 102.147 64.4208V64.4144ZM95.1865 52.2633C93.4866 53.5646 91.9662 54.516 90.707 55.741C89.0543 57.3446 88.5506 59.4541 88.9662 61.7322C89.2747 63.4313 90.4898 64.4717 91.9693 64.4176C93.5559 64.3572 95.1236 62.9285 95.1645 61.3027C95.2337 58.455 95.1834 55.6073 95.1834 52.2633H95.1865Z" fill="black"/>
<path d="M155.657 31.5274C155.216 33.4619 154.357 34.2669 152.515 34.4705C150.274 34.7187 149.717 34.305 148.486 31.5846C147.277 32.4851 146.147 33.6751 144.768 34.2732C142.709 35.1609 140.572 34.8205 138.954 33.1278C137.087 31.1774 136.772 28.6956 137.814 26.3347C138.459 24.8711 139.649 23.4648 140.95 22.5325C142.631 21.3235 144.683 20.6458 146.537 19.669C147.34 19.2458 148.646 19.3126 148.555 17.8522C148.454 16.2072 148.136 14.6195 146.509 13.84C145.845 13.5218 144.969 13.4327 144.236 13.5473C143.178 13.7095 142.564 14.3936 142.923 15.609C143.043 16.0099 143.156 16.4363 143.15 16.8499C143.134 18.0654 141.985 19.0708 140.701 19.0453C139.52 19.0231 138.746 18.1449 138.815 16.7863C138.91 14.9695 140.055 13.8718 141.582 13.2513C144.504 12.0614 147.45 12.1791 150.252 13.6491C152.216 14.68 153.255 16.4045 153.274 18.6794C153.305 22.2303 153.305 25.7843 153.337 29.3351C153.356 31.4351 153.718 31.766 155.654 31.5306L155.657 31.5274ZM148.618 19.9171C146.591 20.6585 144.239 22.4721 143.266 24.098C142.275 25.7588 141.969 27.547 142.517 29.4306C142.996 31.0724 144.233 31.8837 145.829 31.6769C147.318 31.4828 148.568 30.2483 148.599 28.7274C148.659 25.8225 148.618 22.9175 148.618 19.9171Z" fill="black"/>
<path d="M70.4383 58.652C71.5621 61.2643 73.3313 62.8138 75.9504 63.0365C78.9756 63.291 80.814 61.5283 82.2054 58.8843C82.2054 59.2375 82.2494 59.597 82.1991 59.9406C81.6545 63.5106 79.3691 66.1992 76.2431 66.9691C72.9567 67.7805 69.5254 66.4282 67.4257 63.4978C62.9493 57.2521 66.0941 47.3282 73.1393 45.5114C75.1351 44.9959 77.0994 45.1486 78.9378 46.1477C82.0606 47.8468 82.5642 51.9035 79.7311 54.0417C77.9556 55.3812 75.8213 56.2434 73.8161 57.2521C72.793 57.7675 71.7007 58.1334 70.4415 58.6488L70.4383 58.652ZM70.1645 57.9075C72.1854 56.5616 74.1214 55.5816 75.6324 54.1467C76.5044 53.3194 76.9609 51.7922 77.134 50.5163C77.3953 48.6072 76.3943 47.0513 75.0941 46.6218C73.8192 46.2018 72.1288 46.9463 71.1246 48.534C69.3964 51.2672 69.1351 54.2198 70.1645 57.9075Z" fill="black"/>
<path d="M119.034 13.1338H127.109C125.465 14.4829 125.853 15.8765 126.372 17.3242C127.612 20.7732 128.812 24.2349 130.03 27.6935C130.181 27.6935 130.332 27.6935 130.483 27.6935C131.664 23.7704 132.932 19.8728 133.946 15.9051C134.151 15.1097 133.383 14.0629 133.068 13.1433H137.604C134.865 16.4269 134.421 20.4837 133.096 24.1681C131.72 27.9958 130.653 31.9412 129.306 35.7815C128.752 37.3565 127.968 38.9028 127.021 40.2742C125.604 42.3232 123.46 42.9819 121.052 42.67C119.037 42.4091 117.888 40.8628 118.241 39.011C118.531 37.4806 120.019 36.6056 121.294 37.2579C122.119 37.6779 122.598 38.2633 122.129 39.3133C121.949 39.7142 121.911 40.5255 122.129 40.6814C122.522 40.9614 123.208 41.0474 123.69 40.9169C124.263 40.761 124.877 40.3951 125.258 39.9369C127.096 37.716 128.371 35.4729 127.046 32.3134C125 27.4422 123.359 22.4023 121.427 17.4801C120.825 15.9528 119.84 14.5783 119.031 13.137L119.034 13.1338Z" fill="black"/>
<path d="M124.338 60.3862C125.358 61.7862 126.198 63.113 127.212 64.2838C128.38 65.6297 129.928 66.2502 131.729 65.9924C133.133 65.792 134.228 65.0856 134.613 63.657C135.003 62.1998 134.38 61.0321 133.171 60.2621C132.292 59.7021 131.285 59.3489 130.375 58.8335C128.83 57.9585 127.161 57.2108 125.823 56.0749C123.695 54.2677 123.16 51.7764 124.051 49.1419C124.885 46.6696 126.9 45.3715 129.349 45.3397C131.389 45.3142 133.445 45.9092 135.475 46.326C135.787 46.3896 136.196 46.9528 136.215 47.3028C136.297 48.8205 136.249 50.3477 135.891 52.0277C135.5 51.3977 135.185 50.6977 134.701 50.1505C133.671 48.9923 132.702 47.6719 131.43 46.8637C129.916 45.9028 127.854 46.6537 127.183 48.0092C126.475 49.4409 126.991 51.0414 128.701 52.0023C130.526 53.03 132.481 53.8159 134.332 54.7958C136.36 55.8681 137.647 57.529 137.798 59.9217C138.094 64.567 134.754 67.7965 129.947 67.3765C128.084 67.2142 126.248 66.7306 124.338 66.3806V60.3862Z" fill="black"/>
<path d="M101.132 34.0793H92.1096C94.5902 32.3134 94.0866 29.8984 94.0929 27.6235C94.1054 22.3831 94.0708 17.1428 94.118 11.9024C94.1338 10.2193 94.0142 8.6952 91.6973 7.84249C94.1779 6.45843 96.2618 5.29708 98.3426 4.13574C98.5 4.26301 98.6542 4.39028 98.8116 4.51755C98.8116 5.07118 98.8116 5.62162 98.8116 6.17525C98.8116 13.6906 98.8274 21.2059 98.8116 28.7244C98.8085 30.7066 98.7518 32.6729 101.135 34.0793H101.132Z" fill="black"/>
<path d="M37.3904 12.7197C37.3904 15.1538 37.3936 17.3683 37.3904 19.5828C37.3841 22.9204 37.3684 26.2581 37.3652 29.5958C37.3652 31.998 37.5069 32.3162 39.3579 34.0152H30.6223C33.1659 32.1444 32.4355 29.4908 32.4953 27.0535C32.5552 24.6195 32.4922 22.1791 32.4544 19.745C32.4229 17.5878 32.3159 17.4065 30.5625 16.0638C32.7724 14.861 34.6045 13.0761 37.3904 12.7197Z" fill="black"/>
<path d="M37.2097 7.34964C37.1845 8.99142 36.004 10.2355 34.4741 10.2323C32.8372 10.2323 31.5875 8.97552 31.5686 7.31782C31.5497 5.67285 32.8403 4.40651 34.4804 4.46378C36.067 4.51787 37.2317 5.74921 37.2066 7.34964H37.2097Z" fill="black"/>
</svg>
